<svg xmlns="http://www.w3.org/2000/svg" xmlns:xlink="http://www.w3.org/1999/xlink" width="500" zoomAndPan="magnify" viewBox="0 0 375 374.999991" height="500" preserveAspectRatio="xMidYMid meet" version="1.2"><defs><clipPath id="7a99de67fe"><path d="M 47.648438 0 L 120.011719 0 L 120.011719 72.363281 L 47.648438 72.363281 Z M 47.648438 0 "/></clipPath><clipPath id="3824e27928"><path d="M 83.828125 0 C 63.847656 0 47.648438 16.199219 47.648438 36.179688 C 47.648438 56.164062 63.847656 72.363281 83.828125 72.363281 C 103.8125 72.363281 120.011719 56.164062 120.011719 36.179688 C 120.011719 16.199219 103.8125 0 83.828125 0 Z M 83.828125 0 "/></clipPath><clipPath id="83e55b93f5"><path d="M 47.648438 251.328125 L 120.011719 251.328125 L 120.011719 375 L 47.648438 375 Z M 47.648438 251.328125 "/></clipPath><clipPath id="ba4b3962c8"><path d="M 173.941406 41.261719 L 294.601562 41.261719 L 294.601562 122.851562 L 173.941406 122.851562 Z M 173.941406 41.261719 "/></clipPath><clipPath id="81ba8f8512"><path d="M 179.070312 70 L 233 70 L 233 117.957031 L 179.070312 117.957031 Z M 179.070312 70 "/></clipPath><clipPath id="8af2aac3d4"><path d="M 232 45.957031 L 286.320312 45.957031 L 286.320312 94 L 232 94 Z M 232 45.957031 "/></clipPath><clipPath id="8462eb50b8"><path d="M 222.238281 208.507812 L 294.601562 208.507812 L 294.601562 283.886719 L 222.238281 283.886719 Z M 222.238281 208.507812 "/></clipPath></defs><g id="d04711bac0"><rect x="0" width="375" y="0" height="374.999991" style="fill:#ffffff;fill-opacity:1;stroke:none;"/><rect x="0" width="375" y="0" height="374.999991" style="fill:#efefef;fill-opacity:1;stroke:none;"/><g clip-rule="nonzero" clip-path="url(#7a99de67fe)"><g clip-rule="nonzero" clip-path="url(#3824e27928)"><path style=" stroke:none;fill-rule:nonzero;fill:#df3821;fill-opacity:1;" d="M 47.648438 0 L 120.011719 0 L 120.011719 72.363281 L 47.648438 72.363281 Z M 47.648438 0 "/></g></g><g style="fill:#0f1120;fill-opacity:1;"><g transform="translate(59.869985, 191.393779)"><path style="stroke:none" d="M 28.234375 -117.40625 C 23.484375 -117.40625 19.617188 -118.84375 16.640625 -121.71875 C 13.660156 -124.601562 12.171875 -128.328125 12.171875 -132.890625 C 12.171875 -137.390625 13.660156 -141.082031 16.640625 -143.96875 C 19.617188 -146.851562 23.484375 -148.296875 28.234375 -148.296875 C 31.398438 -148.296875 34.21875 -147.628906 36.6875 -146.296875 C 39.164062 -144.960938 41.082031 -143.140625 42.4375 -140.828125 C 43.800781 -138.515625 44.484375 -135.867188 44.484375 -132.890625 C 44.484375 -129.910156 43.800781 -127.25 42.4375 -124.90625 C 41.082031 -122.5625 39.164062 -120.722656 36.6875 -119.390625 C 34.21875 -118.066406 31.398438 -117.40625 28.234375 -117.40625 Z M 8.171875 44.484375 C 0.441406 44.484375 -5.765625 43.472656 -10.453125 41.453125 L -7.21875 20.71875 L -5.421875 20.15625 C -2.878906 21.351562 0.0976562 21.953125 3.515625 21.953125 C 11.242188 21.953125 15.109375 17.390625 15.109375 8.265625 L 15.109375 -104.859375 L 41.453125 -104.859375 L 41.453125 7.515625 C 41.453125 19.742188 38.628906 28.960938 32.984375 35.171875 C 27.347656 41.378906 19.078125 44.484375 8.171875 44.484375 Z M 8.171875 44.484375 "/></g></g><g style="fill:#0f1120;fill-opacity:1;"><g transform="translate(59.869985, 319.858293)"><path style="stroke:none" d="M 103.625 -46.484375 L 36.21875 -46.484375 C 36.976562 -37.359375 39.578125 -30.71875 44.015625 -26.5625 C 48.453125 -22.414062 54.503906 -20.34375 62.171875 -20.34375 C 68.191406 -20.34375 73.070312 -21.46875 76.8125 -23.71875 C 80.550781 -25.96875 83.5625 -29.375 85.84375 -33.9375 L 87.84375 -33.9375 L 105.328125 -22.71875 C 101.910156 -15.363281 96.742188 -9.40625 89.828125 -4.84375 C 82.921875 -0.28125 73.703125 2 62.171875 2 C 51.335938 2 41.972656 -0.0546875 34.078125 -4.171875 C 26.191406 -8.296875 20.109375 -14.429688 15.828125 -22.578125 C 11.546875 -30.722656 9.40625 -40.65625 9.40625 -52.375 C 9.40625 -64.289062 11.65625 -74.335938 16.15625 -82.515625 C 20.65625 -90.691406 26.738281 -96.789062 34.40625 -100.8125 C 42.082031 -104.832031 50.703125 -106.84375 60.265625 -106.84375 C 75.097656 -106.84375 86.457031 -102.914062 94.34375 -95.0625 C 102.238281 -87.207031 106.1875 -75.671875 106.1875 -60.453125 C 106.1875 -54.941406 105.992188 -50.664062 105.609375 -47.625 Z M 81 -63.5 C 80.738281 -71.488281 78.878906 -77.300781 75.421875 -80.9375 C 71.972656 -84.582031 66.921875 -86.40625 60.265625 -86.40625 C 46.960938 -86.40625 39.140625 -78.769531 36.796875 -63.5 Z M 81 -63.5 "/></g></g><g style="fill:#0f1120;fill-opacity:1;"><g transform="translate(163.131853, 319.858293)"><path style="stroke:none" d="M 43.53125 2 C 34.09375 2 26.882812 -0.550781 21.90625 -5.65625 C 16.9375 -10.757812 14.453125 -18.507812 14.453125 -28.90625 L 14.453125 -146.96875 L 40.78125 -146.96875 L 40.78125 -29.9375 C 40.78125 -23.539062 43.441406 -20.34375 48.765625 -20.34375 C 50.285156 -20.34375 51.898438 -20.597656 53.609375 -21.109375 L 54.953125 -20.71875 L 57.328125 -0.46875 C 55.867188 0.289062 53.929688 0.890625 51.515625 1.328125 C 49.109375 1.773438 46.445312 2 43.53125 2 Z M 43.53125 2 "/></g></g><g style="fill:#0f1120;fill-opacity:1;"><g transform="translate(171.736395, 192.691912)"><path style="stroke:none" d="M 60.9375 2 C 50.664062 2 41.648438 -0.101562 33.890625 -4.3125 C 26.128906 -8.53125 20.109375 -14.710938 15.828125 -22.859375 C 11.546875 -31.003906 9.40625 -40.84375 9.40625 -52.375 C 9.40625 -63.914062 11.546875 -73.769531 15.828125 -81.9375 C 20.109375 -90.113281 26.128906 -96.304688 33.890625 -100.515625 C 41.648438 -104.734375 50.664062 -106.84375 60.9375 -106.84375 C 71.195312 -106.84375 80.207031 -104.734375 87.96875 -100.515625 C 95.738281 -96.304688 101.773438 -90.113281 106.078125 -81.9375 C 110.390625 -73.769531 112.546875 -63.914062 112.546875 -52.375 C 112.546875 -40.84375 110.390625 -31.003906 106.078125 -22.859375 C 101.773438 -14.710938 95.738281 -8.53125 87.96875 -4.3125 C 80.207031 -0.101562 71.195312 2 60.9375 2 Z M 60.9375 -20.34375 C 77.21875 -20.34375 85.359375 -31.019531 85.359375 -52.375 C 85.359375 -63.46875 83.265625 -71.597656 79.078125 -76.765625 C 74.898438 -81.929688 68.851562 -84.515625 60.9375 -84.515625 C 44.644531 -84.515625 36.5 -73.800781 36.5 -52.375 C 36.5 -31.019531 44.644531 -20.34375 60.9375 -20.34375 Z M 60.9375 -20.34375 "/></g></g><g clip-rule="nonzero" clip-path="url(#83e55b93f5)"><path style=" stroke:none;fill-rule:nonzero;fill:#fbeb78;fill-opacity:1;" d="M 47.648438 251.328125 L 120.011719 251.328125 L 120.011719 375.136719 L 47.648438 375.136719 Z M 47.648438 251.328125 "/></g><g clip-rule="nonzero" clip-path="url(#ba4b3962c8)"><path style=" stroke:none;fill-rule:nonzero;fill:#efefef;fill-opacity:1;" d="M 173.941406 41.261719 L 294.730469 41.261719 L 294.730469 122.851562 L 173.941406 122.851562 Z M 173.941406 41.261719 "/></g><g clip-rule="nonzero" clip-path="url(#81ba8f8512)"><path style=" stroke:none;fill-rule:nonzero;fill:#0652e9;fill-opacity:1;" d="M 215.121094 104.164062 L 215.121094 110.679688 L 185.609375 96.96875 L 185.609375 91.683594 L 215.121094 77.972656 L 215.121094 84.488281 L 192.800781 94.265625 L 192.800781 94.386719 Z M 232.648438 70.730469 L 183.292969 70.730469 C 180.964844 70.730469 179.074219 72.617188 179.074219 74.949219 L 179.074219 113.703125 C 179.074219 116.035156 180.964844 117.921875 183.292969 117.921875 L 218.949219 117.921875 L 232.648438 70.730469 "/></g><g clip-rule="nonzero" clip-path="url(#8af2aac3d4)"><path style=" stroke:none;fill-rule:nonzero;fill:#38b6ff;fill-opacity:1;" d="M 279.609375 72.40625 L 250.097656 85.933594 L 250.097656 79.414062 L 272.90625 69.640625 L 272.90625 69.515625 L 250.097656 59.738281 L 250.097656 53.222656 L 279.609375 66.75 Z M 246.351562 45.980469 L 232.648438 93.175781 L 281.921875 93.175781 C 284.253906 93.175781 286.140625 91.285156 286.140625 88.953125 L 286.140625 50.199219 C 286.140625 47.871094 284.253906 45.980469 281.921875 45.980469 L 246.351562 45.980469 "/></g><g clip-rule="nonzero" clip-path="url(#8462eb50b8)"><path style=" stroke:none;fill-rule:nonzero;fill:#b9e185;fill-opacity:1;" d="M 222.238281 208.507812 L 294.601562 208.507812 L 294.601562 283.980469 L 222.238281 283.980469 Z M 222.238281 208.507812 "/></g></g></svg>